<svg id="visual" viewBox="0 0 900 900" width="900" height="900" xmlns="http://www.w3.org/2000/svg" xmlns:xlink="http://www.w3.org/1999/xlink" version="1.1"><g transform="translate(435.4538486618875 481.4075769476119)"><path d="M178.4 -272.7C232 -243.1 277 -195.1 304.9 -138.1C332.8 -81.1 343.6 -15.1 320.3 35.8C296.9 86.6 239.5 122.2 194.7 162C149.8 201.8 117.4 245.8 73.1 267C28.8 288.2 -27.4 286.6 -77.1 269.1C-126.8 251.5 -170 218.1 -214.6 179C-259.2 140 -305.3 95.2 -303.9 48.9C-302.5 2.5 -253.6 -45.5 -235.6 -117C-217.5 -188.5 -230.4 -283.5 -196.3 -322.1C-162.2 -360.7 -81.1 -342.9 -9.4 -328.3C62.4 -313.7 124.7 -302.4 178.4 -272.7" fill="#008c33"></path></g></svg>